<svg width="18" height="18" viewBox="0 0 18 18" fill="none" xmlns="http://www.w3.org/2000/svg">
<path d="M17.3329 8.08227C17.3986 8.08227 17.4478 8.2135 17.4806 8.47597C17.5462 8.70563 17.579 8.9681 17.579 9.26337C17.579 9.55865 17.5462 9.83752 17.4806 10.1C17.4478 10.3625 17.3986 10.4937 17.3329 10.4937H10.394V17.3835C10.394 17.4491 10.2463 17.5147 9.95106 17.5803C9.65578 17.6131 9.3441 17.6295 9.01602 17.6295C8.32704 17.6295 7.98255 17.5803 7.98255 17.4819V10.4937H1.09279C1.02717 10.4937 0.961552 10.3625 0.895935 10.1C0.863127 9.83752 0.846723 9.54224 0.846723 9.21416C0.846723 8.91888 0.863127 8.65642 0.895935 8.42676C0.928744 8.1971 0.977956 8.08227 1.04357 8.08227H7.98255V1.1925C7.98255 1.12689 8.11379 1.07767 8.37625 1.04486C8.63872 0.979248 8.91759 0.946439 9.21287 0.946439C9.50814 0.946439 9.77061 0.979248 10.0003 1.04486C10.2627 1.07767 10.394 1.12689 10.394 1.1925V8.08227H17.3329Z" fill="white"/>
</svg>
