<svg width="30" height="39" viewBox="0 0 30 39" fill="#ffffff" xmlns="http://www.w3.org/2000/svg">
<path d="M17.4615 20.8607C17.1241 20.8 16.9047 20.7921 16.6099 20.9671C16.2803 21.1628 16.0765 21.4355 16.0775 21.8188C16.0784 22.1382 16.1602 22.5203 16.3969 22.9899C16.7039 23.5989 16.9652 23.9064 17.4616 24.374C18.1935 25.0635 19.6973 25.6516 19.6973 25.6516C19.6973 25.6516 19.5646 36.462 19.8038 36.9368C19.9111 37.1497 20 37.3829 20.2296 37.5756C20.5018 37.8039 20.7262 37.89 21.0814 37.895C21.384 37.8992 21.5743 37.8493 21.8266 37.6821C22.1247 37.4845 22.2722 37.2838 22.3589 36.9368C22.4654 36.511 22.4654 30.7619 22.4654 30.7619H23.2107C23.2107 30.7619 23.1492 36.511 23.3171 36.8303C23.4997 37.1775 23.526 37.4601 23.8494 37.6821C24.1321 37.8761 24.2761 37.895 24.7012 37.895C24.9801 37.895 25.2259 37.7453 25.4472 37.5756C25.705 37.3781 25.7261 37.2268 25.8723 36.9368C25.9796 36.7239 25.8723 26.6097 25.8723 26.6097C25.8723 26.6097 26.003 26.5973 26.0852 26.6097C26.5663 26.6827 26.4417 27.2992 26.5111 27.7809C26.6183 28.5261 26.6448 29.7524 26.724 29.9101C26.9377 30.336 27.2819 30.6554 27.7894 30.6554C28.2153 30.6554 28.4028 30.3003 28.5339 29.9101C28.6412 29.5908 28.8089 28.124 28.5339 27.0356C28.2282 25.8256 27.899 25.0624 26.9369 24.2675C26.495 23.9024 26.2305 23.8494 25.6729 23.7378L25.6602 23.7352C25.1287 23.6288 22.962 23.8753 21.2943 23.5223C20.8305 23.4241 20.5595 23.3883 20.1232 23.2029C19.6769 23.0133 19.4173 22.8902 19.0585 22.5641C18.6148 22.1607 18.6434 21.6975 18.2068 21.2865C17.9464 21.0414 17.8135 20.9239 17.4615 20.8607Z" stroke="#FEFEFE" stroke-width="0.737963"/>
<path d="M1.38612 12.2353C1.38612 12.2353 0.64094 20.6462 0.640869 20.859C0.640585 21.7175 1.09557 22.4786 1.91844 22.4559C2.62621 22.4364 3.1849 22.0629 3.40895 21.3913C3.51549 21.0719 4.04773 13.5129 4.04773 13.5129C4.04773 13.5129 4.2678 13.1641 4.47359 13.1935C4.64822 13.2184 4.79299 13.5129 4.79299 13.5129C4.79299 13.5129 4.68652 36.3362 4.79307 36.5093C4.89961 36.6825 5.19499 37.2888 5.6447 37.5739C5.97785 37.785 6.10207 37.7893 6.4965 37.7869C6.94429 37.7841 7.33388 37.7661 7.66753 37.4674C7.98648 37.1819 8.09339 36.8285 8.19985 36.5092C8.30631 36.1899 8.19985 23.5206 8.19985 23.5206H9.2645C9.2645 23.5206 9.26458 36.2432 9.37096 36.5092C9.56867 37.0036 9.75479 37.3198 10.2227 37.5739C10.524 37.7375 10.7318 37.7983 11.0745 37.7869C11.377 37.7768 11.8065 37.7768 12.1391 37.361C12.4717 36.9453 12.5648 36.7221 12.6714 36.5092C12.7779 36.2964 12.6714 13.5129 12.6714 13.5129C12.6714 13.5129 12.8894 13.1975 13.0972 13.1935C13.397 13.1876 13.5231 13.8323 13.5231 13.8323C14.1883 16.41 14.9038 19.475 15.0137 19.9008C15.1236 20.3267 16.0915 20.6965 16.6106 20.4332C17.0855 20.1923 17.4623 19.901 17.4623 19.3685C17.4623 18.9428 16.2452 12.5548 16.0783 12.2354C15.6191 11.3564 15.5163 10.7928 14.8007 10.1061C14.1011 9.43464 13.2662 9.04312 12.7339 8.93661L4.68652 8.935C4.68652 8.935 3.23958 9.47388 2.55723 10.2126C1.9264 10.8955 1.38612 12.2353 1.38612 12.2353Z" stroke="white" stroke-width="0.737963"/>
<circle cx="8.83844" cy="4.03925" r="3.35728" stroke="white" stroke-width="0.737963" fill='#ffffff'>
<circle cx="22.7854" cy="19.4766" r="2.61203" stroke="white" stroke-width="0.737963" fill='#ffffff'/>
</svg>
