<svg width="27" height="27" viewBox="0 0 27 27" fill="none" xmlns="http://www.w3.org/2000/svg">
<path d="M11.0208 4.89308L11.349 4.80706L11.4461 4.48193L12.3277 1.52983L14.9273 1.59811L15.366 4.53228L15.4109 4.83269L15.6789 4.97562L17.5315 5.96351L17.8423 6.12928L18.1396 5.94014L20.8691 4.20312L22.8405 6.17957L21.0613 8.5922L20.8791 8.83934L20.9715 9.13216L21.5909 11.094L21.6968 11.4295L22.041 11.5027L25.1526 12.1638L25.0796 14.9409L21.9015 15.6183L21.5914 15.6844L21.4699 15.9772L20.7537 17.7027L20.6308 17.9988L20.8072 18.2664L22.4679 20.785L20.3605 22.8334L18.0679 21.2358L17.8191 21.0624L17.5315 21.1585L15.298 21.9049L14.897 22.0389L14.8859 22.4615L14.8084 25.4114L11.4872 25.3242L10.9899 22.2473L10.9364 21.9159L10.6267 21.7866L8.5695 20.9275L8.27425 20.8042L8.00648 20.9794L5.71705 22.477L3.71462 20.8168L5.38239 18.2322L5.53604 17.9941L5.45099 17.7238L4.76987 15.5591L4.64058 15.1482L4.20996 15.1369L1.2601 15.0594L1.35261 11.537L4.42951 11.0398L4.7635 10.9858L4.89175 10.6727L5.68028 8.74785L5.79647 8.46423L5.63602 8.20308L4.0769 5.66541L5.84057 3.80106L8.46289 5.37548L8.68077 5.50629L8.9266 5.44187L11.0208 4.89308Z" stroke="white" stroke-width="1.20718"/>
<circle cx="13.2448" cy="13.4286" r="3.99039" transform="rotate(1.50448 13.2448 13.4286)" stroke="white" stroke-width="1.14011"/>
</svg>
