<svg width="26" height="26" viewBox="0 0 26 26" fill="none" xmlns="http://www.w3.org/2000/svg">
<path d="M11.1612 4.73904C10.9434 3.89355 7.31524 0.438416 6.68126 0.51133C6.04724 0.584248 5.64121 0.642741 5.13052 1.01866C4.44127 1.52601 3.14993 2.49375 2.20132 3.89353C1.81765 4.45967 1.53992 4.76456 1.3398 5.41551C1.06768 6.30067 1.09118 7.03057 1.16753 7.95211C1.41971 10.9961 3.16534 14.2489 5.81974 17.4222C8.88734 21.0895 12.8841 23.5774 15.9857 24.3556C17.2397 24.6703 17.9651 24.863 19.2595 24.863C20.2932 24.863 20.9019 24.3807 21.844 23.8483C23.5759 22.8697 25.413 21.1426 25.4624 20.297C25.4935 19.7655 25.4196 19.4612 25.2901 18.9442C25.0784 18.0986 21.8822 14.8505 21.1547 14.7164C20.4272 14.5824 19.9809 14.5542 19.2595 14.7164C18.7425 14.8327 16.3303 17.084 16.3303 17.084L8.57651 9.30501C8.57651 9.30501 11.278 6.76869 11.3335 6.43013C11.4409 5.77485 11.3269 5.38251 11.1612 4.73904Z" stroke="white" stroke-width="0.737963"/>
</svg>
