<svg width="22" height="22" viewBox="0 0 22 22" fill="none" xmlns="http://www.w3.org/2000/svg">
<path d="M21.546 9.304C21.6313 9.304 21.6953 9.47467 21.738 9.816C21.8233 10.1147 21.866 10.456 21.866 10.84C21.866 11.224 21.8233 11.5867 21.738 11.928C21.6953 12.2693 21.6313 12.44 21.546 12.44H12.522V21.4C12.522 21.4853 12.33 21.5707 11.946 21.656C11.562 21.6987 11.1567 21.72 10.73 21.72C9.834 21.72 9.386 21.656 9.386 21.528V12.44H0.426C0.340667 12.44 0.255333 12.2693 0.17 11.928C0.127333 11.5867 0.106 11.2027 0.106 10.776C0.106 10.392 0.127333 10.0507 0.17 9.752C0.212667 9.45333 0.276667 9.304 0.362 9.304H9.386V0.344C9.386 0.258666 9.55667 0.194666 9.898 0.151999C10.2393 0.066665 10.602 0.0239983 10.986 0.0239983C11.37 0.0239983 11.7113 0.066665 12.01 0.151999C12.3513 0.194666 12.522 0.258666 12.522 0.344V9.304H21.546Z" fill="white"/>
</svg>
